<svg width="17" height="22" viewBox="0 0 17 22" fill="none" xmlns="http://www.w3.org/2000/svg">
<path d="M1.19104 0V21.4" stroke="black" stroke-width="0.764285"/>
<path d="M15.9035 0V21.4" stroke="black" stroke-width="0.764285"/>
<path d="M1 7.26062L16.2857 7.26062" stroke="black" stroke-width="0.764285"/>
<path d="M1 15.6678L16.2857 15.6678" stroke="black" stroke-width="0.764285"/>
<mask id="path-5-inside-1" fill="white">
<path fill-rule="evenodd" clip-rule="evenodd" d="M5.58565 3.82142C5.58565 4.66562 4.90128 5.34999 4.05708 5.34999C3.21287 5.34999 2.52851 4.66562 2.52851 3.82142C2.52851 2.97721 3.21287 2.29285 4.05708 2.29285C4.90128 2.29285 5.58565 2.97721 5.58565 3.82142ZM5.77676 3.05716H13.2285C14.1783 3.05716 14.9482 3.82707 14.9482 4.7768V6.87859H5.77676V3.05716ZM5.58564 6.87852V6.87856H2.5285L2.5285 6.87852C2.5285 6.03431 3.21287 5.34995 4.05707 5.34995C4.90128 5.34995 5.58564 6.03431 5.58564 6.87852Z"/>
</mask>
<path fill-rule="evenodd" clip-rule="evenodd" d="M5.58565 3.82142C5.58565 4.66562 4.90128 5.34999 4.05708 5.34999C3.21287 5.34999 2.52851 4.66562 2.52851 3.82142C2.52851 2.97721 3.21287 2.29285 4.05708 2.29285C4.90128 2.29285 5.58565 2.97721 5.58565 3.82142ZM5.77676 3.05716H13.2285C14.1783 3.05716 14.9482 3.82707 14.9482 4.7768V6.87859H5.77676V3.05716ZM5.58564 6.87852V6.87856H2.5285L2.5285 6.87852C2.5285 6.03431 3.21287 5.34995 4.05707 5.34995C4.90128 5.34995 5.58564 6.03431 5.58564 6.87852Z" fill="white"/>
<path d="M5.77676 3.05716V2.67502H5.39462V3.05716H5.77676ZM14.9482 6.87859V7.26073H15.3303V6.87859H14.9482ZM5.77676 6.87859H5.39462V7.26073H5.77676V6.87859ZM5.58564 6.87856V7.2607H5.96778V6.87856H5.58564ZM2.5285 6.87856L2.14636 6.87856L2.14637 7.2607H2.5285V6.87856ZM2.5285 6.87852L2.14636 6.87852L2.14636 6.87852L2.5285 6.87852ZM4.05708 5.73213C5.11233 5.73213 5.96779 4.87667 5.96779 3.82142H5.2035C5.2035 4.45457 4.69023 4.96784 4.05708 4.96784V5.73213ZM2.14636 3.82142C2.14636 4.87667 3.00182 5.73213 4.05708 5.73213V4.96784C3.42392 4.96784 2.91065 4.45457 2.91065 3.82142H2.14636ZM4.05708 1.9107C3.00182 1.9107 2.14636 2.76616 2.14636 3.82142H2.91065C2.91065 3.18826 3.42392 2.67499 4.05708 2.67499V1.9107ZM5.96779 3.82142C5.96779 2.76616 5.11233 1.9107 4.05708 1.9107V2.67499C4.69023 2.67499 5.2035 3.18826 5.2035 3.82142H5.96779ZM13.2285 2.67502H5.77676V3.4393H13.2285V2.67502ZM15.3303 4.7768C15.3303 3.61602 14.3893 2.67502 13.2285 2.67502V3.4393C13.9672 3.4393 14.566 4.03812 14.566 4.7768H15.3303ZM15.3303 6.87859V4.7768H14.566V6.87859H15.3303ZM5.77676 7.26073H14.9482V6.49644H5.77676V7.26073ZM5.39462 3.05716V6.87859H6.1589V3.05716H5.39462ZM5.96778 6.87856V6.87852H5.2035V6.87856H5.96778ZM2.5285 7.2607H5.58564V6.49642H2.5285V7.2607ZM2.14636 6.87852L2.14636 6.87856L2.91065 6.87856L2.91065 6.87851L2.14636 6.87852ZM4.05707 4.96781C3.00182 4.96781 2.14636 5.82326 2.14636 6.87852H2.91065C2.91065 6.24537 3.42392 5.73209 4.05707 5.73209V4.96781ZM5.96778 6.87852C5.96778 5.82326 5.11233 4.96781 4.05707 4.96781V5.73209C4.69023 5.73209 5.2035 6.24537 5.2035 6.87852H5.96778Z" fill="black" mask="url(#path-5-inside-1)"/>
<mask id="path-7-inside-2" fill="white">
<path fill-rule="evenodd" clip-rule="evenodd" d="M5.58565 12.2285C5.58565 13.0727 4.90128 13.7571 4.05708 13.7571C3.21287 13.7571 2.52851 13.0727 2.52851 12.2285C2.52851 11.3843 3.21287 10.7 4.05708 10.7C4.90128 10.7 5.58565 11.3843 5.58565 12.2285ZM5.77676 11.4643H13.2285C14.1783 11.4643 14.9482 12.2342 14.9482 13.1839V15.2857H5.77676V11.4643ZM4.05707 13.7572C3.21289 13.7572 2.52854 14.4415 2.5285 15.2857H5.58564C5.5856 14.4415 4.90125 13.7572 4.05707 13.7572Z"/>
</mask>
<path fill-rule="evenodd" clip-rule="evenodd" d="M5.58565 12.2285C5.58565 13.0727 4.90128 13.7571 4.05708 13.7571C3.21287 13.7571 2.52851 13.0727 2.52851 12.2285C2.52851 11.3843 3.21287 10.7 4.05708 10.7C4.90128 10.7 5.58565 11.3843 5.58565 12.2285ZM5.77676 11.4643H13.2285C14.1783 11.4643 14.9482 12.2342 14.9482 13.1839V15.2857H5.77676V11.4643ZM4.05707 13.7572C3.21289 13.7572 2.52854 14.4415 2.5285 15.2857H5.58564C5.5856 14.4415 4.90125 13.7572 4.05707 13.7572Z" fill="white"/>
<path d="M5.77676 11.4643V11.0821H5.39462V11.4643H5.77676ZM14.9482 15.2857V15.6678H15.3303V15.2857H14.9482ZM5.77676 15.2857H5.39462V15.6678H5.77676V15.2857ZM2.5285 15.2857L2.14636 15.2856L2.14634 15.6678H2.5285V15.2857ZM5.58564 15.2857V15.6678H5.9678L5.96778 15.2856L5.58564 15.2857ZM4.05708 14.1392C5.11233 14.1392 5.96779 13.2838 5.96779 12.2285H5.2035C5.2035 12.8617 4.69023 13.3749 4.05708 13.3749V14.1392ZM2.14636 12.2285C2.14636 13.2838 3.00182 14.1392 4.05708 14.1392V13.3749C3.42392 13.3749 2.91065 12.8617 2.91065 12.2285H2.14636ZM4.05708 10.3178C3.00182 10.3178 2.14636 11.1733 2.14636 12.2285H2.91065C2.91065 11.5954 3.42392 11.0821 4.05708 11.0821V10.3178ZM5.96779 12.2285C5.96779 11.1733 5.11233 10.3178 4.05708 10.3178V11.0821C4.69023 11.0821 5.2035 11.5954 5.2035 12.2285H5.96779ZM13.2285 11.0821H5.77676V11.8464H13.2285V11.0821ZM15.3303 13.1839C15.3303 12.0231 14.3893 11.0821 13.2285 11.0821V11.8464C13.9672 11.8464 14.566 12.4452 14.566 13.1839H15.3303ZM15.3303 15.2857V13.1839H14.566V15.2857H15.3303ZM5.77676 15.6678H14.9482V14.9036H5.77676V15.6678ZM5.39462 11.4643V15.2857H6.1589V11.4643H5.39462ZM2.91065 15.2857C2.91068 14.6526 3.42394 14.1393 4.05707 14.1393V13.375C3.00185 13.375 2.14641 14.2304 2.14636 15.2856L2.91065 15.2857ZM5.58564 14.9035H2.5285V15.6678H5.58564V14.9035ZM4.05707 14.1393C4.69021 14.1393 5.20347 14.6526 5.2035 15.2857L5.96778 15.2856C5.96773 14.2304 5.1123 13.375 4.05707 13.375V14.1393Z" fill="black" mask="url(#path-7-inside-2)"/>
</svg>
