<svg width="25" height="33" viewBox="0 0 25 33" fill="none" xmlns="http://www.w3.org/2000/svg">
<path d="M1.29993 0V33" stroke="black" stroke-width="0.764285"/>
<path d="M24.3999 0V33" stroke="black" stroke-width="0.764285"/>
<path d="M1 11.1963L25 11.1963" stroke="black" stroke-width="0.764285"/>
<path d="M1 24.1606H25" stroke="black" stroke-width="0.764285"/>
<mask id="path-5-inside-1" fill="white">
<path fill-rule="evenodd" clip-rule="evenodd" d="M8.1999 5.89279C8.1999 7.1946 7.12539 8.24993 5.7999 8.24993C4.47442 8.24993 3.3999 7.1946 3.3999 5.89279C3.3999 4.59097 4.47442 3.53564 5.7999 3.53564C7.12539 3.53564 8.1999 4.59097 8.1999 5.89279ZM8.49994 4.71421H21.1803C22.13 4.71421 22.8999 5.48412 22.8999 6.43386V10.6071H8.49994V4.71421ZM5.7999 8.25002C4.47444 8.25002 3.39994 9.30531 3.3999 10.6071H8.1999C8.19986 9.30531 7.12536 8.25002 5.7999 8.25002Z"/>
</mask>
<path fill-rule="evenodd" clip-rule="evenodd" d="M8.1999 5.89279C8.1999 7.1946 7.12539 8.24993 5.7999 8.24993C4.47442 8.24993 3.3999 7.1946 3.3999 5.89279C3.3999 4.59097 4.47442 3.53564 5.7999 3.53564C7.12539 3.53564 8.1999 4.59097 8.1999 5.89279ZM8.49994 4.71421H21.1803C22.13 4.71421 22.8999 5.48412 22.8999 6.43386V10.6071H8.49994V4.71421ZM5.7999 8.25002C4.47444 8.25002 3.39994 9.30531 3.3999 10.6071H8.1999C8.19986 9.30531 7.12536 8.25002 5.7999 8.25002Z" fill="white"/>
<path d="M8.49994 4.71421V4.33207H8.1178V4.71421H8.49994ZM22.8999 10.6071V10.9892H23.2821V10.6071H22.8999ZM8.49994 10.6071H8.1178V10.9892H8.49994V10.6071ZM3.3999 10.6071L3.01776 10.6071L3.01775 10.9892H3.3999V10.6071ZM8.1999 10.6071V10.9892H8.58206L8.58204 10.6071L8.1999 10.6071ZM5.7999 8.63207C7.32992 8.63207 8.58204 7.41212 8.58204 5.89279H7.81776C7.81776 6.97709 6.92085 7.86779 5.7999 7.86779V8.63207ZM3.01776 5.89279C3.01776 7.41212 4.26989 8.63207 5.7999 8.63207V7.86779C4.67895 7.86779 3.78204 6.97709 3.78204 5.89279H3.01776ZM5.7999 3.1535C4.26989 3.1535 3.01776 4.37346 3.01776 5.89279H3.78204C3.78204 4.80849 4.67895 3.91779 5.7999 3.91779V3.1535ZM8.58204 5.89279C8.58204 4.37346 7.32992 3.1535 5.7999 3.1535V3.91779C6.92085 3.91779 7.81776 4.80849 7.81776 5.89279H8.58204ZM21.1803 4.33207H8.49994V5.09636H21.1803V4.33207ZM23.2821 6.43386C23.2821 5.27307 22.3411 4.33207 21.1803 4.33207V5.09636C21.919 5.09636 22.5178 5.69518 22.5178 6.43386H23.2821ZM23.2821 10.6071V6.43386H22.5178V10.6071H23.2821ZM8.49994 10.9892H22.8999V10.2249H8.49994V10.9892ZM8.1178 4.71421V10.6071H8.88208V4.71421H8.1178ZM3.78204 10.6071C3.78208 9.52283 4.67897 8.63217 5.7999 8.63217V7.86788C4.26992 7.86788 3.01781 9.08779 3.01776 10.6071L3.78204 10.6071ZM8.1999 10.225H3.3999V10.9892H8.1999V10.225ZM5.7999 8.63217C6.92083 8.63217 7.81773 9.52283 7.81776 10.6071L8.58204 10.6071C8.582 9.08779 7.32989 7.86788 5.7999 7.86788V8.63217Z" fill="black" mask="url(#path-5-inside-1)"/>
<mask id="path-7-inside-2" fill="white">
<path fill-rule="evenodd" clip-rule="evenodd" d="M8.1999 18.857C8.1999 20.1588 7.12539 21.2142 5.7999 21.2142C4.47442 21.2142 3.3999 20.1588 3.3999 18.857C3.3999 17.5552 4.47442 16.4999 5.7999 16.4999C7.12539 16.4999 8.1999 17.5552 8.1999 18.857ZM8.49994 17.6785H21.1803C22.13 17.6785 22.8999 18.4484 22.8999 19.3981V23.5713H8.49994V17.6785ZM5.7999 21.2144C4.47448 21.2144 3.40001 22.2696 3.3999 23.5713H8.1999C8.1998 22.2696 7.12532 21.2144 5.7999 21.2144Z"/>
</mask>
<path fill-rule="evenodd" clip-rule="evenodd" d="M8.1999 18.857C8.1999 20.1588 7.12539 21.2142 5.7999 21.2142C4.47442 21.2142 3.3999 20.1588 3.3999 18.857C3.3999 17.5552 4.47442 16.4999 5.7999 16.4999C7.12539 16.4999 8.1999 17.5552 8.1999 18.857ZM8.49994 17.6785H21.1803C22.13 17.6785 22.8999 18.4484 22.8999 19.3981V23.5713H8.49994V17.6785ZM5.7999 21.2144C4.47448 21.2144 3.40001 22.2696 3.3999 23.5713H8.1999C8.1998 22.2696 7.12532 21.2144 5.7999 21.2144Z" fill="white"/>
<path d="M8.49994 17.6785V17.2963H8.1178V17.6785H8.49994ZM22.8999 23.5713V23.9535H23.2821V23.5713H22.8999ZM8.49994 23.5713H8.1178V23.9535H8.49994V23.5713ZM3.3999 23.5713L3.01776 23.5713L3.01773 23.9535H3.3999V23.5713ZM8.1999 23.5713V23.9535H8.58207L8.58204 23.5713L8.1999 23.5713ZM5.7999 21.5963C7.32992 21.5963 8.58204 20.3763 8.58204 18.857H7.81776C7.81776 19.9413 6.92085 20.832 5.7999 20.832V21.5963ZM3.01776 18.857C3.01776 20.3763 4.26989 21.5963 5.7999 21.5963V20.832C4.67895 20.832 3.78204 19.9413 3.78204 18.857H3.01776ZM5.7999 16.1177C4.26989 16.1177 3.01776 17.3377 3.01776 18.857H3.78204C3.78204 17.7727 4.67895 16.882 5.7999 16.882V16.1177ZM8.58204 18.857C8.58204 17.3377 7.32992 16.1177 5.7999 16.1177V16.882C6.92085 16.882 7.81776 17.7727 7.81776 18.857H8.58204ZM21.1803 17.2963H8.49994V18.0606H21.1803V17.2963ZM23.2821 19.3981C23.2821 18.2373 22.3411 17.2963 21.1803 17.2963V18.0606C21.919 18.0606 22.5178 18.6594 22.5178 19.3981H23.2821ZM23.2821 23.5713V19.3981H22.5178V23.5713H23.2821ZM8.49994 23.9535H22.8999V23.1892H8.49994V23.9535ZM8.1178 17.6785V23.5713H8.88208V17.6785H8.1178ZM3.78204 23.5714C3.78213 22.4871 4.679 21.5965 5.7999 21.5965V20.8322C4.26996 20.8322 3.01788 22.0521 3.01776 23.5713L3.78204 23.5714ZM8.1999 23.1892H3.3999V23.9535H8.1999V23.1892ZM5.7999 21.5965C6.9208 21.5965 7.81767 22.4871 7.81776 23.5714L8.58204 23.5713C8.58192 22.0521 7.32984 20.8322 5.7999 20.8322V21.5965Z" fill="black" mask="url(#path-7-inside-2)"/>
</svg>
