<svg width="16" height="25" viewBox="0 0 16 25" fill="none" xmlns="http://www.w3.org/2000/svg">
<path d="M2.40746 24.6084L0.243545 0.264402L15.7665 2.94078L14.1415 24.6084H2.40746Z" fill="white" stroke="black" stroke-width="0.438356"/>
<path d="M3.0169 4.35712H6.31168V7.69002L3.48827 7.21459L3.0169 4.35712ZM9.59573 13.2037L9.12436 10.3462H12.4191V13.6791L9.59573 13.2037ZM13.0686 8.10818L10.2013 8.591L9.74024 5.79604H13.5263L13.0686 8.10818ZM3.5558 9.80177H7.34183L6.88413 12.1139L4.01686 12.5967L3.5558 9.80177ZM12.4527 18.5567L9.58542 19.0395L9.12436 16.2446H12.9104L12.4527 18.5567ZM6.88424 19.1294L4.05557 18.6531V15.2803L7.36103 15.7574L6.88424 19.1294ZM6.74683 24.533L6.26413 20.7671H10.5826L9.61724 24.533H6.74683Z" fill="white" stroke="black" stroke-width="0.438356"/>
</svg>
