<svg width="24" height="37" viewBox="0 0 24 37" fill="none" xmlns="http://www.w3.org/2000/svg">
<path d="M3.51079 36.7808L0.243683 0.264113L23.7664 4.29347L21.314 36.7808H3.51079Z" fill="white" stroke="black" stroke-width="0.438356"/>
<path d="M4.39651 6.3858H9.57714V11.5876L5.13685 10.8447L4.39651 6.3858ZM14.298 19.7702L13.5577 15.3113H18.7383V20.513L14.298 19.7702ZM19.6959 12.1768L15.2116 12.9271L14.4815 8.5302H20.4225L19.6959 12.1768ZM5.20485 14.4998H11.1458L10.4193 18.1465L5.9349 18.8967L5.20485 14.4998ZM18.7721 27.7481L14.2877 28.4983L13.5577 24.1014H19.4987L18.7721 27.7481ZM10.4193 28.6327L5.9738 27.889V22.6475L11.1652 23.392L10.4193 28.6327ZM10.0237 36.6685L9.27189 30.8413H16.0148L14.5112 36.6685H10.0237Z" fill="white" stroke="black" stroke-width="0.438356"/>
</svg>
