<svg width="24" height="18" viewBox="0 0 24 18" fill="none" xmlns="http://www.w3.org/2000/svg">
<path d="M1.40704 3.01369H22.593C23.3506 3.01369 23.9648 3.62789 23.9648 4.38555V17.3014H0.0351759V4.38555C0.0351759 3.62789 0.649378 3.01369 1.40704 3.01369Z" fill="white" stroke="black" stroke-width="0.0703518"/>
<path d="M8.67335 0.371846H15.3266C15.5015 0.371846 15.6432 0.513585 15.6432 0.688429V3.05825H8.35677V0.688428C8.35677 0.513585 8.49851 0.371846 8.67335 0.371846Z" fill="white" stroke="black" stroke-width="0.0703518"/>
<path d="M2.89453 2.64107C2.89453 2.44679 3.05202 2.28931 3.24629 2.28931H4.47242C4.66669 2.28931 4.82418 2.44679 4.82418 2.64107V2.9785H2.89453V2.64107Z" fill="black"/>
<path d="M19.1407 10.1001C19.1407 13.822 15.9723 16.842 12.0603 16.842C8.14825 16.842 4.97988 13.822 4.97988 10.1001C4.97988 6.37832 8.14825 3.3583 12.0603 3.3583C15.9723 3.3583 19.1407 6.37832 19.1407 10.1001Z" stroke="black" stroke-width="0.0703518"/>
<path d="M17.7085 10.1004C17.7085 13.0614 15.1862 15.4732 12.0602 15.4732C8.93427 15.4732 6.412 13.0614 6.412 10.1004C6.412 7.13949 8.93427 4.72762 12.0602 4.72762C15.1862 4.72762 17.7085 7.13949 17.7085 10.1004Z" fill="#353131" stroke="black" stroke-width="0.281407"/>
<mask id="path-6-inside-1" fill="white">
<path fill-rule="evenodd" clip-rule="evenodd" d="M11.0076 12.08H11.7322L17.2357 12.1665C16.5089 13.8158 14.9384 15.0444 13.0385 15.3626L11.0076 12.08ZM12.8863 15.3861L9.7402 10.3011L7.72871 13.4964C8.75771 14.6855 10.316 15.4436 12.0602 15.4436C12.3409 15.4436 12.6167 15.4239 12.8863 15.3861ZM7.63196 13.3814C6.89117 12.4758 6.44989 11.3371 6.44989 10.1001C6.44989 9.46841 6.56499 8.86229 6.77631 8.29976L10.8527 8.26525L7.63196 13.3814ZM6.83015 8.16246L13.0681 8.10965L11.1528 4.82625C9.17188 5.13307 7.5391 6.42789 6.83015 8.16246ZM11.3033 4.80493L13.9842 9.40095L14.3844 10.0611L16.3836 6.69442C15.3545 5.51077 13.7998 4.75671 12.0602 4.75671C11.8035 4.75671 11.5509 4.77314 11.3033 4.80493ZM16.4814 6.81015L13.4184 11.9683L17.2938 12.0293C17.5372 11.4309 17.6706 10.7803 17.6706 10.1001C17.6706 8.85924 17.2265 7.71714 16.4814 6.81015Z"/>
</mask>
<path fill-rule="evenodd" clip-rule="evenodd" d="M11.0076 12.08H11.7322L17.2357 12.1665C16.5089 13.8158 14.9384 15.0444 13.0385 15.3626L11.0076 12.08ZM12.8863 15.3861L9.7402 10.3011L7.72871 13.4964C8.75771 14.6855 10.316 15.4436 12.0602 15.4436C12.3409 15.4436 12.6167 15.4239 12.8863 15.3861ZM7.63196 13.3814C6.89117 12.4758 6.44989 11.3371 6.44989 10.1001C6.44989 9.46841 6.56499 8.86229 6.77631 8.29976L10.8527 8.26525L7.63196 13.3814ZM6.83015 8.16246L13.0681 8.10965L11.1528 4.82625C9.17188 5.13307 7.5391 6.42789 6.83015 8.16246ZM11.3033 4.80493L13.9842 9.40095L14.3844 10.0611L16.3836 6.69442C15.3545 5.51077 13.7998 4.75671 12.0602 4.75671C11.8035 4.75671 11.5509 4.77314 11.3033 4.80493ZM16.4814 6.81015L13.4184 11.9683L17.2938 12.0293C17.5372 11.4309 17.6706 10.7803 17.6706 10.1001C17.6706 8.85924 17.2265 7.71714 16.4814 6.81015Z" fill="white"/>
<path d="M11.0076 12.08V12.0097H10.8813L10.9478 12.117L11.0076 12.08ZM11.7322 12.08L11.7333 12.0097H11.7322V12.08ZM17.2357 12.1665L17.3001 12.1949L17.3428 12.0978L17.2368 12.0962L17.2357 12.1665ZM13.0385 15.3626L12.9787 15.3996L13.0036 15.4398L13.0501 15.432L13.0385 15.3626ZM9.7402 10.3011L9.80002 10.2641L9.74071 10.1682L9.68066 10.2636L9.7402 10.3011ZM12.8863 15.3861L12.8961 15.4557L13.0028 15.4407L12.9461 15.349L12.8863 15.3861ZM7.72871 13.4964L7.66918 13.4589L7.64141 13.503L7.67551 13.5424L7.72871 13.4964ZM7.63196 13.3814L7.57751 13.426L7.63942 13.5016L7.6915 13.4189L7.63196 13.3814ZM6.77631 8.29976L6.77572 8.22941L6.72743 8.22982L6.71045 8.27502L6.77631 8.29976ZM10.8527 8.26525L10.9122 8.30273L10.9808 8.19381L10.8521 8.1949L10.8527 8.26525ZM13.0681 8.10965L13.0687 8.18L13.19 8.17897L13.1288 8.0742L13.0681 8.10965ZM6.83015 8.16246L6.76503 8.13584L6.72503 8.23371L6.83074 8.23281L6.83015 8.16246ZM11.1528 4.82625L11.2136 4.7908L11.1894 4.74938L11.1421 4.75672L11.1528 4.82625ZM13.9842 9.40095L13.9234 9.4364L13.924 9.43742L13.9842 9.40095ZM11.3033 4.80493L11.2943 4.73516L11.189 4.74868L11.2425 4.84038L11.3033 4.80493ZM14.3844 10.0611L14.3242 10.0976L14.385 10.1979L14.4449 10.097L14.3844 10.0611ZM16.3836 6.69442L16.4441 6.73034L16.47 6.68662L16.4367 6.64826L16.3836 6.69442ZM13.4184 11.9683L13.3579 11.9324L13.2959 12.0368L13.4173 12.0387L13.4184 11.9683ZM16.4814 6.81015L16.5357 6.76549L16.4721 6.68801L16.4209 6.77423L16.4814 6.81015ZM17.2938 12.0293L17.2927 12.0996L17.3409 12.1004L17.359 12.0558L17.2938 12.0293ZM11.0076 12.1504H11.7322V12.0097H11.0076V12.1504ZM11.7311 12.1504L17.2346 12.2369L17.2368 12.0962L11.7333 12.0097L11.7311 12.1504ZM13.0501 15.432C14.9727 15.11 16.5635 13.8664 17.3001 12.1949L17.1713 12.1381C16.4544 13.7651 14.9041 14.9788 13.0269 15.2932L13.0501 15.432ZM13.0983 15.3256L11.0674 12.043L10.9478 12.117L12.9787 15.3996L13.0983 15.3256ZM9.68037 10.3381L12.8264 15.4231L12.9461 15.349L9.80002 10.2641L9.68037 10.3381ZM7.78825 13.5339L9.79973 10.3386L9.68066 10.2636L7.66918 13.4589L7.78825 13.5339ZM7.67551 13.5424C8.71775 14.7468 10.2954 15.5139 12.0602 15.5139V15.3732C10.3366 15.3732 8.79767 14.6241 7.78191 13.4504L7.67551 13.5424ZM12.0602 15.5139C12.3442 15.5139 12.6232 15.4941 12.8961 15.4557L12.8765 15.3164C12.6101 15.3538 12.3376 15.3732 12.0602 15.3732V15.5139ZM6.37954 10.1001C6.37954 11.3542 6.82702 12.5085 7.57751 13.426L7.68642 13.3369C6.95532 12.4431 6.52024 11.3199 6.52024 10.1001H6.37954ZM6.71045 8.27502C6.49622 8.8453 6.37954 9.4598 6.37954 10.1001H6.52024C6.52024 9.47703 6.63376 8.87928 6.84217 8.3245L6.71045 8.27502ZM6.77691 8.37011L10.8533 8.3356L10.8521 8.1949L6.77572 8.22941L6.77691 8.37011ZM10.7931 8.22777L7.57243 13.3439L7.6915 13.4189L10.9122 8.30273L10.7931 8.22777ZM13.0675 8.0393L6.82955 8.09211L6.83074 8.23281L13.0687 8.18L13.0675 8.0393ZM11.0921 4.86169L13.0073 8.1451L13.1288 8.0742L11.2136 4.7908L11.0921 4.86169ZM11.1421 4.75672C9.13751 5.0672 7.48361 6.37771 6.76503 8.13584L6.89527 8.18908C7.59459 6.47808 9.20626 5.19893 11.1636 4.89577L11.1421 4.75672ZM14.045 9.36551L11.3641 4.76949L11.2425 4.84038L13.9234 9.4364L14.045 9.36551ZM14.4445 10.0247L14.0443 9.36448L13.924 9.43742L14.3242 10.0976L14.4445 10.0247ZM16.3231 6.6585L14.3239 10.0252L14.4449 10.097L16.4441 6.73034L16.3231 6.6585ZM16.4367 6.64826C15.3944 5.44939 13.8204 4.68636 12.0602 4.68636V4.82707C13.7793 4.82707 15.3146 5.57215 16.3305 6.74058L16.4367 6.64826ZM12.0602 4.68636C11.8005 4.68636 11.5449 4.70298 11.2943 4.73516L11.3123 4.87471C11.5569 4.84329 11.8065 4.82707 12.0602 4.82707V4.68636ZM13.4789 12.0043L16.5419 6.84607L16.4209 6.77423L13.3579 11.9324L13.4789 12.0043ZM17.2949 11.9589L13.4195 11.898L13.4173 12.0387L17.2927 12.0996L17.2949 11.9589ZM17.359 12.0558C17.6057 11.4491 17.741 10.7896 17.741 10.1001H17.6003C17.6003 10.7711 17.4686 11.4126 17.2287 12.0028L17.359 12.0558ZM17.741 10.1001C17.741 8.84205 17.2906 7.68435 16.5357 6.76549L16.427 6.85481C17.1624 7.74993 17.6003 8.87644 17.6003 10.1001H17.741Z" fill="black" mask="url(#path-6-inside-1)"/>
</svg>
