<svg width="14" height="11" viewBox="0 0 14 11" fill="none" xmlns="http://www.w3.org/2000/svg">
<path d="M1.40704 1.98989H12.593C13.3506 1.98989 13.9648 2.60409 13.9648 3.36175V10.7135H0.0351759V3.36175C0.0351759 2.60409 0.649378 1.98989 1.40704 1.98989Z" fill="white" stroke="black" stroke-width="0.0703518"/>
<path d="M5.20601 0.371846H8.79395C8.96879 0.371846 9.11053 0.513585 9.11053 0.688429V1.98994H4.88942V0.688429C4.88942 0.513585 5.03116 0.371846 5.20601 0.371846Z" fill="white" stroke="black" stroke-width="0.0703518"/>
<path d="M1.68848 1.88435C1.68848 1.69008 1.84596 1.53259 2.04024 1.53259H2.46235C2.65662 1.53259 2.8141 1.69008 2.8141 1.88435V1.9547H1.68848V1.88435Z" fill="black"/>
<circle cx="7.03515" cy="6.31653" r="4.11558" stroke="black" stroke-width="0.0703518"/>
<circle cx="7.03515" cy="6.3167" r="3.23618" fill="#353131" stroke="black" stroke-width="0.281407"/>
<mask id="path-6-inside-1" fill="white">
<path fill-rule="evenodd" clip-rule="evenodd" d="M6.62425 3.06937L8.38695 6.24224L9.53774 4.20746C8.93741 3.49584 8.03907 3.04382 7.03516 3.04382C6.89599 3.04382 6.75885 3.05251 6.62425 3.06937ZM6.47557 3.09148L7.57439 5.06935L3.99556 5.10116C4.41127 4.06241 5.34403 3.28643 6.47557 3.09148ZM3.94282 5.24234C3.82595 5.57882 3.76245 5.94026 3.76245 6.31653C3.76245 7.06326 4.01254 7.75158 4.43353 8.3023L6.28063 5.22156L3.94282 5.24234ZM4.52737 8.41941C5.12771 9.1346 6.02834 9.58924 7.03516 9.58924C7.18827 9.58924 7.33893 9.57873 7.48645 9.55838L5.68124 6.49489L4.52737 8.41941ZM7.63557 9.53429C8.7203 9.33316 9.61722 8.59706 10.0423 7.60996L6.46686 7.55095L7.63557 9.53429ZM10.0987 7.47016C10.2339 7.11138 10.3079 6.72259 10.3079 6.31653C10.3079 5.56738 10.0562 4.87701 9.63268 4.3254L7.87489 7.43347L10.0987 7.47016Z"/>
</mask>
<path fill-rule="evenodd" clip-rule="evenodd" d="M6.62425 3.06937L8.38695 6.24224L9.53774 4.20746C8.93741 3.49584 8.03907 3.04382 7.03516 3.04382C6.89599 3.04382 6.75885 3.05251 6.62425 3.06937ZM6.47557 3.09148L7.57439 5.06935L3.99556 5.10116C4.41127 4.06241 5.34403 3.28643 6.47557 3.09148ZM3.94282 5.24234C3.82595 5.57882 3.76245 5.94026 3.76245 6.31653C3.76245 7.06326 4.01254 7.75158 4.43353 8.3023L6.28063 5.22156L3.94282 5.24234ZM4.52737 8.41941C5.12771 9.1346 6.02834 9.58924 7.03516 9.58924C7.18827 9.58924 7.33893 9.57873 7.48645 9.55838L5.68124 6.49489L4.52737 8.41941ZM7.63557 9.53429C8.7203 9.33316 9.61722 8.59706 10.0423 7.60996L6.46686 7.55095L7.63557 9.53429ZM10.0987 7.47016C10.2339 7.11138 10.3079 6.72259 10.3079 6.31653C10.3079 5.56738 10.0562 4.87701 9.63268 4.3254L7.87489 7.43347L10.0987 7.47016Z" fill="white"/>
<path d="M8.38695 6.24224L8.32546 6.27641L8.38641 6.38612L8.44819 6.27687L8.38695 6.24224ZM6.62425 3.06937L6.61551 2.99956L6.51218 3.01251L6.56275 3.10354L6.62425 3.06937ZM9.53774 4.20746L9.59898 4.24209L9.62307 4.1995L9.59151 4.1621L9.53774 4.20746ZM6.47557 3.09148L6.53707 3.05731L6.51283 3.01367L6.46363 3.02215L6.47557 3.09148ZM7.57439 5.06935L7.57501 5.1397L7.69337 5.13864L7.63589 5.03518L7.57439 5.06935ZM3.99556 5.10116L3.93024 5.07502L3.89125 5.17244L3.99618 5.17151L3.99556 5.10116ZM3.94282 5.24234L3.94219 5.17199L3.89263 5.17243L3.87636 5.21926L3.94282 5.24234ZM4.43353 8.3023L4.37764 8.34502L4.44057 8.42736L4.49387 8.33847L4.43353 8.3023ZM6.28063 5.22156L6.34097 5.25773L6.40551 5.15009L6.28 5.15121L6.28063 5.22156ZM4.52737 8.41941L4.46703 8.38323L4.44124 8.42624L4.47348 8.46464L4.52737 8.41941ZM7.48645 9.55838L7.49606 9.62807L7.60067 9.61365L7.54706 9.52267L7.48645 9.55838ZM5.68124 6.49489L5.74185 6.45917L5.68177 6.3572L5.6209 6.45871L5.68124 6.49489ZM7.63557 9.53429L7.57495 9.57001L7.59996 9.61244L7.64839 9.60346L7.63557 9.53429ZM10.0423 7.60996L10.107 7.63778L10.1485 7.54135L10.0435 7.53961L10.0423 7.60996ZM6.46686 7.55095L6.46802 7.48061L6.34253 7.47854L6.40625 7.58667L6.46686 7.55095ZM10.0987 7.47016L10.0976 7.54051L10.1471 7.54132L10.1646 7.49497L10.0987 7.47016ZM9.63268 4.3254L9.68849 4.28256L9.62377 4.19826L9.57145 4.29077L9.63268 4.3254ZM7.87489 7.43347L7.81366 7.39883L7.75539 7.50186L7.87373 7.50381L7.87489 7.43347ZM8.44845 6.20807L6.68575 3.03521L6.56275 3.10354L8.32546 6.27641L8.44845 6.20807ZM9.4765 4.17283L8.32572 6.20761L8.44819 6.27687L9.59898 4.24209L9.4765 4.17283ZM9.59151 4.1621C8.97838 3.43531 8.06067 2.97347 7.03516 2.97347V3.11417C8.01747 3.11417 8.89643 3.55637 9.48397 4.25282L9.59151 4.1621ZM7.03516 2.97347C6.89306 2.97347 6.753 2.98234 6.61551 2.99956L6.63299 3.13918C6.7647 3.12268 6.89892 3.11417 7.03516 3.11417V2.97347ZM6.41407 3.12564L7.51289 5.10351L7.63589 5.03518L6.53707 3.05731L6.41407 3.12564ZM7.57376 4.999L3.99493 5.03081L3.99618 5.17151L7.57501 5.1397L7.57376 4.999ZM6.46363 3.02215C5.30755 3.22133 4.35487 4.014 3.93024 5.07502L4.06087 5.1273C4.46767 4.11082 5.3805 3.35154 6.48752 3.16081L6.46363 3.02215ZM3.87636 5.21926C3.75695 5.56306 3.6921 5.9323 3.6921 6.31653H3.8328C3.8328 5.94822 3.89495 5.59458 4.00928 5.26542L3.87636 5.21926ZM3.6921 6.31653C3.6921 7.07924 3.9476 7.78246 4.37764 8.34502L4.48942 8.25957C4.07748 7.72069 3.8328 7.04729 3.8328 6.31653H3.6921ZM6.22029 5.18538L4.37319 8.26612L4.49387 8.33847L6.34097 5.25773L6.22029 5.18538ZM3.94345 5.31269L6.28126 5.29191L6.28 5.15121L3.94219 5.17199L3.94345 5.31269ZM4.47348 8.46464C5.08662 9.19507 6.00668 9.65959 7.03516 9.65959V9.51889C6.05001 9.51889 5.1688 9.07412 4.58125 8.37418L4.47348 8.46464ZM7.03516 9.65959C7.1915 9.65959 7.34537 9.64886 7.49606 9.62807L7.47684 9.48869C7.33249 9.5086 7.18505 9.51889 7.03516 9.51889V9.65959ZM5.62063 6.5306L7.42584 9.5941L7.54706 9.52267L5.74185 6.45917L5.62063 6.5306ZM4.5877 8.45559L5.74158 6.53106L5.6209 6.45871L4.46703 8.38323L4.5877 8.45559ZM7.64839 9.60346C8.75664 9.39797 9.67273 8.64603 10.107 7.63778L9.97773 7.58213C9.56171 8.54809 8.68395 9.26835 7.62274 9.46512L7.64839 9.60346ZM6.4657 7.6213L10.0412 7.6803L10.0435 7.53961L6.46802 7.48061L6.4657 7.6213ZM7.69618 9.49857L6.52747 7.51524L6.40625 7.58667L7.57495 9.57001L7.69618 9.49857ZM10.1646 7.49497C10.3027 7.12838 10.3782 6.7312 10.3782 6.31653H10.2375C10.2375 6.71399 10.1651 7.09439 10.0329 7.44536L10.1646 7.49497ZM10.3782 6.31653C10.3782 5.55135 10.1211 4.84603 9.68849 4.28256L9.57688 4.36825C9.99125 4.908 10.2375 5.5834 10.2375 6.31653H10.3782ZM7.93613 7.4681L9.69392 4.36004L9.57145 4.29077L7.81366 7.39883L7.93613 7.4681ZM10.0999 7.39982L7.87605 7.36312L7.87373 7.50381L10.0976 7.54051L10.0999 7.39982Z" fill="black" mask="url(#path-6-inside-1)"/>
</svg>
