<svg width="26" height="17" viewBox="0 0 26 17" fill="none" xmlns="http://www.w3.org/2000/svg">
<path fill-rule="evenodd" clip-rule="evenodd" d="M13 16.0001C6.37262 16.0001 1.00006 12.819 1 8.89486H25C24.9999 12.819 19.6274 16.0001 13 16.0001Z" fill="#FBF8F8"/>
<path d="M1 8.89486V8.72547H0.830605L0.830608 8.89487L1 8.89486ZM25 8.89486L25.1694 8.89487L25.1694 8.72547H25V8.89486ZM9.77879 4.49017L9.66066 4.61157L9.66066 4.61157L9.77879 4.49017ZM12.9787 4.49017L12.8606 4.61157L12.8606 4.61157L12.9787 4.49017ZM16.1787 4.49017L16.0606 4.61157L16.0606 4.61157L16.1787 4.49017ZM0.830608 8.89487C0.830637 10.9409 2.23024 12.7632 4.42845 14.0648C6.63039 15.3686 9.66128 16.1695 13 16.1695V15.8307C9.71134 15.8307 6.74226 15.0411 4.60106 13.7733C2.45612 12.5033 1.16942 10.7729 1.16939 8.89486L0.830608 8.89487ZM25 8.72547H1V9.06426H25V8.72547ZM13 16.1695C16.3387 16.1695 19.3696 15.3686 21.5716 14.0648C23.7698 12.7632 25.1694 10.9409 25.1694 8.89487L24.8306 8.89486C24.8306 10.7729 23.5439 12.5033 21.3989 13.7733C19.2577 15.0411 16.2887 15.8307 13 15.8307V16.1695ZM10.0312 0.887882C9.10886 1.9325 8.78749 2.67138 8.83523 3.26744C8.88305 3.86449 9.30065 4.26127 9.66066 4.61157L9.89692 4.36877C9.51806 4.00012 9.20892 3.68973 9.17293 3.24039C9.13687 2.79006 9.37464 2.14334 10.2852 1.11212L10.0312 0.887882ZM9.66066 4.61157C10.0251 4.96623 10.3417 5.28168 10.4149 5.73438C10.4874 6.1822 10.3259 6.81511 9.57612 7.80574L9.84626 8.01019C10.6148 6.99467 10.8441 6.26609 10.7493 5.68026C10.6553 5.0993 10.2465 4.70893 9.89692 4.36877L9.66066 4.61157ZM13.2311 0.887882C12.3088 1.9325 11.9874 2.67138 12.0351 3.26744C12.083 3.86449 12.5006 4.26127 12.8606 4.61157L13.0968 4.36877C12.718 4.00012 12.4088 3.68973 12.3728 3.24039C12.3368 2.79006 12.5745 2.14334 13.4851 1.11212L13.2311 0.887882ZM12.8606 4.61157C13.225 4.96623 13.5416 5.28168 13.6148 5.73438C13.6873 6.1822 13.5258 6.81511 12.776 7.80574L13.0462 8.01019C13.8147 6.99467 14.0441 6.26609 13.9493 5.68026C13.8552 5.0993 13.4464 4.70893 13.0968 4.36877L12.8606 4.61157ZM16.4312 0.887882C15.5088 1.9325 15.1874 2.67138 15.2352 3.26744C15.283 3.86449 15.7006 4.26127 16.0606 4.61157L16.2969 4.36877C15.918 4.00012 15.6089 3.68973 15.5729 3.24039C15.5368 2.79006 15.7746 2.14334 16.6851 1.11212L16.4312 0.887882ZM16.0606 4.61157C16.4251 4.96623 16.7416 5.28168 16.8149 5.73438C16.8873 6.1822 16.7258 6.81511 15.9761 7.80573L16.2462 8.01019C17.0148 6.99467 17.2441 6.26609 17.1493 5.68026C17.0553 5.0993 16.6465 4.70893 16.2969 4.36877L16.0606 4.61157Z" fill="black"/>
</svg>
