<svg width="22" height="15" viewBox="0 0 22 15" fill="none" xmlns="http://www.w3.org/2000/svg">
<path fill-rule="evenodd" clip-rule="evenodd" d="M11.3329 14.052C5.62627 14.052 1.00009 11.284 1 7.86953H21.6659C21.6658 11.284 17.0396 14.052 11.3329 14.052Z" fill="#FBF8F8"/>
<path d="M1 7.86953V7.70014H0.830603L0.830608 7.86954L1 7.86953ZM21.6659 7.86953L21.8353 7.86954L21.8353 7.70014H21.6659V7.86953ZM8.55921 4.03692L8.44045 4.15771L8.44045 4.15771L8.55921 4.03692ZM11.3146 4.03692L11.4333 3.91614L11.4333 3.91614L11.3146 4.03692ZM14.0701 4.03692L14.1889 3.91614L14.1889 3.91614L14.0701 4.03692ZM0.830608 7.86954C0.830655 9.6599 2.0426 11.2516 3.93953 12.3866C5.8399 13.5236 8.45426 14.2214 11.3329 14.2214V13.8826C8.50494 13.8826 5.95288 13.1964 4.11348 12.0959C2.27062 10.9932 1.16944 9.49368 1.16939 7.86953L0.830608 7.86954ZM21.6659 7.70014H1V8.03893H21.6659V7.70014ZM11.3329 14.2214C14.2116 14.2214 16.826 13.5236 18.7263 12.3866C20.6233 11.2516 21.8352 9.6599 21.8353 7.86954L21.4965 7.86953C21.4964 9.49368 20.3953 10.9932 18.5524 12.0959C16.713 13.1964 14.1609 13.8826 11.3329 13.8826V14.2214ZM8.75836 0.888542C7.96317 1.7986 7.68147 2.44723 7.72327 2.9746C7.76516 3.50312 8.13144 3.85386 8.44045 4.15771L8.67798 3.91614C8.35077 3.5944 8.09127 3.3298 8.06099 2.94783C8.03063 2.5647 8.23039 2.00766 9.01348 1.11146L8.75836 0.888542ZM8.44045 4.15771C8.75506 4.46706 9.02188 4.73676 9.08369 5.12279C9.14478 5.50423 9.00968 6.04911 8.36542 6.90932L8.63658 7.11241C9.29972 6.227 9.50116 5.5872 9.41822 5.06922C9.336 4.55583 8.97822 4.21137 8.67798 3.91614L8.44045 4.15771ZM11.5137 0.888542C10.7185 1.7986 10.4368 2.44723 10.4786 2.9746C10.5205 3.50312 10.8868 3.85386 11.1958 4.15771L11.4333 3.91614C11.1061 3.5944 10.8466 3.3298 10.8164 2.94783C10.786 2.5647 10.9858 2.00766 11.7688 1.11146L11.5137 0.888542ZM11.1958 4.15771C11.5104 4.46706 11.7772 4.73676 11.8391 5.12279C11.9001 5.50423 11.765 6.04911 11.1208 6.90932L11.392 7.11241C12.0551 6.227 12.2565 5.5872 12.1736 5.06922C12.0914 4.55583 11.7336 4.21137 11.4333 3.91614L11.1958 4.15771ZM14.2692 0.888542C13.474 1.7986 13.1923 2.44723 13.2341 2.9746C13.276 3.50312 13.6423 3.85386 13.9513 4.15771L14.1889 3.91614C13.8617 3.5944 13.6021 3.3298 13.5719 2.94783C13.5415 2.5647 13.7413 2.00766 14.5244 1.11146L14.2692 0.888542ZM13.9513 4.15771C14.2659 4.46706 14.5328 4.73676 14.5946 5.12279C14.6557 5.50423 14.5206 6.04911 13.8763 6.90932L14.1475 7.11241C14.8106 6.227 15.012 5.5872 14.9291 5.06922C14.8469 4.55583 14.4891 4.21137 14.1889 3.91614L13.9513 4.15771Z" fill="black"/>
</svg>
