<svg width="22" height="11" viewBox="0 0 22 11" fill="none" xmlns="http://www.w3.org/2000/svg">
<path d="M1 2.71565C6.61654 5.80247 11.3958 -2.38 17.7487 2.71565C12.5508 2.71565 5.0428 9.72198 1 2.71565Z" fill="white"/>
<path d="M2.31617 4.81394C10.4018 7.99853 12.7119 -0.281715 19.0649 4.81394C13.867 4.81394 6.35897 11.8203 2.31617 4.81394Z" fill="white"/>
<path d="M4.25127 7.37335C12.3369 10.5579 14.647 2.2777 21 7.37335C15.8021 7.37335 8.29406 14.3797 4.25127 7.37335Z" fill="white"/>
<path d="M1 2.71565C6.61654 5.80247 11.3958 -2.38 17.7487 2.71565C12.5508 2.71565 5.0428 9.72198 1 2.71565Z" stroke="black" stroke-width="0.541353"/>
<path d="M2.31617 4.81394C10.4018 7.99853 12.7119 -0.281715 19.0649 4.81394C13.867 4.81394 6.35897 11.8203 2.31617 4.81394Z" stroke="black" stroke-width="0.541353"/>
<path d="M4.25127 7.37335C12.3369 10.5579 14.647 2.2777 21 7.37335C15.8021 7.37335 8.29406 14.3797 4.25127 7.37335Z" stroke="black" stroke-width="0.541353"/>
</svg>
