<svg width="26" height="13" viewBox="0 0 24 13" fill="none" xmlns="http://www.w3.org/2000/svg">
<path d="M1 2.98921C7.73985 6.56822 13.4749 -2.91893 21.0985 2.98921C14.861 2.98921 5.85136 11.1127 1 2.98921Z" fill="white"/>
<path d="M2.5794 5.42206C12.2821 9.11443 15.0543 -0.486081 22.6779 5.42206C16.4404 5.42206 7.43076 13.5455 2.5794 5.42206Z" fill="white"/>
<path d="M4.90152 8.38957C14.6042 12.0819 17.3764 2.48143 25 8.38957C18.7625 8.38957 9.75288 16.513 4.90152 8.38957Z" fill="white"/>
<path d="M1 2.98921C7.73985 6.56822 13.4749 -2.91893 21.0985 2.98921C14.861 2.98921 5.85136 11.1127 1 2.98921Z" stroke="black" stroke-width="0.541353"/>
<path d="M2.5794 5.42206C12.2821 9.11443 15.0543 -0.486081 22.6779 5.42206C16.4404 5.42206 7.43076 13.5455 2.5794 5.42206Z" stroke="black" stroke-width="0.541353"/>
<path d="M4.90152 8.38957C14.6042 12.0819 17.3764 2.48143 25 8.38957C18.7625 8.38957 9.75288 16.513 4.90152 8.38957Z" stroke="black" stroke-width="0.541353"/>
</svg>
